<svg width="20%" height="20%" viewBox="0 0 315 233" version="1.1" xmlns="http://www.w3.org/2000/svg" xmlns:xlink="http://www.w3.org/1999/xlink" xml:space="preserve" xmlns:serif="http://www.serif.com/" style="fill-rule:evenodd;clip-rule:evenodd;stroke-linecap:round;stroke-linejoin:round;stroke-miterlimit:1.5;"><path d="M6.979,221.529l20.752,-29.646c-0,0 44.091,-6.903 63.574,-15.896c32.461,-14.983 42.827,-24.649 57.974,-43.462c17.568,-21.82 34.34,-66.961 47.434,-87.456c8.474,-13.264 18.727,-29.122 31.128,-35.508c4.447,-2.29 32.611,-0.808 32.611,-0.808c-0,0 -7.535,5.373 -10.64,8.758c-3.897,4.249 -9.487,11.241 -12.746,16.734c-2.993,5.043 -5.674,11.392 -6.809,16.222c-0.973,4.14 -1.331,8.719 0,12.758c1.606,4.875 5.126,12.183 9.636,16.488c10.741,10.256 21.214,17.172 30.402,23.962c9.698,7.166 26.475,24.286 30.92,34.599c5.854,13.583 6.776,25.87 4.866,37.713c-0.952,5.898 -2.646,11.187 -4.866,15.896c-3.234,6.858 -7.749,12.487 -14.082,16.98c-9.722,6.898 -28.93,11.587 -40.022,11.859c-45.457,1.111 -240.132,0.807 -240.132,0.807Z" style="fill:#fcfcfc;stroke:#160b0b;stroke-width:13px;"/><path d="M259.396,194.187l-155.152,0l-1.926,0.721l152.676,0c0,0 1.764,-0.135 4.402,-0.721Z" style="fill:#000322;fill-opacity:0.43;"/><path d="M284.081,153.424l-124.492,0l0.346,-0.415l124.047,-0l0.099,0.415Z" style="fill:#000322;fill-opacity:0.43;"/><path d="M187.171,111.898l59.614,0l0.473,0.348l-60.273,-0l0.002,-0.005l0.184,-0.343Z" style="fill:#000322;fill-opacity:0.43;"/><path d="M210.615,65.908l-0.428,-0l0.338,-0.701l0.09,0.701Z" style="fill:#000322;fill-opacity:0.43;"/><path d="M284.081,153.424l-124.492,0l-3.399,4.079c-5.379,6.265 -18.294,18.166 -28.242,24.659c-9.673,6.315 -19.617,10.452 -23.704,12.025l155.152,0c5.104,-1.079 13.48,-3.788 18.744,-10.249c2.544,-3.122 5.543,-7.301 6.647,-13.495c0.991,-5.555 0.904,-10.59 -0.706,-17.019Z" style="fill:#001afe;"/><path d="M247.258,112.246l-60.273,-0c-6.927,12.644 -13.649,24.559 -27.05,40.763l124.047,-0l-0.083,-0.346c-3.512,-13.393 -8.153,-19.27 -22.975,-30.388c-4.642,-3.481 -9.268,-6.8 -13.666,-10.029Z" style="fill:#f10414;"/><path d="M210.615,65.908l-0.428,-0l-8,16.554c-5.788,11.622 -5.645,11.465 -11.562,22.964l-3.454,6.472l59.614,0c-9.25,-6.712 -17.502,-12.975 -22.919,-19.268c-11.033,-12.82 -12.956,-23.882 -13.251,-26.722Z"/></svg>